<svg xmlns="http://www.w3.org/2000/svg" viewBox="0 0 1000 800" role="img">
  <title>Europe country borders</title>
  <desc>Country borders within Europe derived from Natural Earth (public domain) data.</desc>
  <g fill="none" stroke="#8590c7" stroke-width="1.2" stroke-linejoin="round" stroke-linecap="round">
    <path d="M752.1 647.7 L749.1 655.2 L752.5 664.8 L762.4 670.2 L761.9 676.0 L754.2 679.2 L752.7 686.4 L741.7 697.2 L737.6 695.7 L737.1 690.8 L724.0 683.3 L721.9 672.7 L723.9 657.6 L727.1 650.7 L723.1 647.2 L721.5 640.1 L731.9 629.2 L733.4 633.3 L739.8 631.4 L744.9 637.3 L750.5 639.6 L752.1 647.7 Z"/>
    <path d="M666.2 508.4 L664.4 517.4 L651.0 517.5 L655.6 522.3 L647.7 536.6 L643.1 540.4 L622.3 540.9 L610.3 546.0 L590.6 544.2 L556.6 538.5 L551.3 530.8 L527.7 534.6 L525.0 538.9 L510.5 535.7 L498.4 535.1 L487.6 531.0 L491.3 525.6 L490.3 521.7 L497.5 520.4 L509.6 526.6 L513.0 520.7 L534.0 521.7 L551.0 517.7 L562.4 518.4 L569.8 522.9 L572.0 519.2 L568.7 504.7 L577.2 501.9 L585.6 491.6 L603.3 498.8 L616.7 489.7 L625.1 488.0 L643.6 494.8 L654.7 493.6 L665.7 497.8 L663.8 500.7 L666.2 508.4 Z"/>
    <path d="M340.8 436.8 L358.3 438.5 L380.3 433.9 L395.4 443.6 L408.5 448.8 L405.8 463.8 L399.6 464.7 L397.0 477.1 L376.2 467.0 L364.0 468.7 L347.3 458.2 L336.3 449.3 L325.2 449.0 L321.8 441.1 L340.8 436.8 Z"/>
    <path d="M801.4 594.8 L808.2 603.9 L817.4 602.3 L835.7 605.8 L870.7 606.9 L882.5 601.3 L910.5 596.1 L927.9 604.2 L941.9 606.5 L929.5 615.7 L920.8 631.6 L928.5 644.3 L908.0 641.3 L883.7 648.3 L883.5 659.4 L861.8 661.5 L845.1 653.7 L826.0 659.8 L808.4 659.2 L806.7 644.5 L794.8 637.3 L798.7 634.2 L796.1 631.5 L800.1 624.5 L809.2 617.5 L797.6 607.9 L795.5 599.8 L801.4 594.8 Z"/>
    <path d="M714.4 580.9 L723.0 580.8 L717.1 590.6 L728.6 599.1 L725.1 609.6 L719.5 610.6 L715.0 612.6 L707.3 617.8 L703.8 630.0 L682.7 621.6 L673.7 612.3 L664.7 607.4 L653.7 599.1 L648.6 592.2 L636.9 581.8 L641.9 572.6 L650.4 577.7 L655.6 573.1 L666.7 572.6 L687.2 576.3 L703.6 576.0 L714.4 580.9 Z"/>
    <path d="M821.1 379.7 L844.1 379.9 L869.9 371.5 L875.4 359.0 L895.0 351.8 L892.7 341.9 L907.2 338.1 L932.8 329.6 L957.8 335.1 L961.2 340.7 L973.7 338.0 L997.0 343.3 L999.3 353.7 L994.2 359.7 L1009.2 374.3 L1018.8 378.3 L1017.4 382.4 L1033.5 386.3 L1040.3 392.2 L1031.1 397.1 L1011.8 396.3 L1007.3 398.4 L1012.9 405.7 L1018.7 420.0 L998.3 421.3 L990.9 426.2 L989.4 437.3 L979.9 435.2 L958.5 436.3 L952.2 431.1 L943.3 434.9 L934.3 431.7 L915.6 431.3 L889.0 425.9 L864.9 424.2 L846.5 424.7 L833.5 430.7 L822.1 431.6 L821.6 421.7 L814.3 411.4 L828.6 406.9 L828.7 398.0 L822.1 389.6 L821.1 379.7 Z"/>
    <path d="M490.3 521.7 L491.3 525.6 L487.6 531.0 L498.4 535.1 L510.5 535.7 L508.7 544.8 L498.2 548.6 L480.5 545.8 L475.4 554.7 L464.0 555.4 L459.9 551.9 L446.6 559.5 L435.1 560.5 L424.8 555.8 L416.7 546.0 L405.3 549.5 L405.7 539.4 L423.1 526.9 L422.3 521.3 L433.1 523.3 L439.7 519.5 L459.9 519.7 L464.8 514.9 L490.3 521.7 Z"/>
    <path d="M665.7 497.8 L654.7 493.6 L643.6 494.8 L625.1 488.0 L616.7 489.7 L603.3 498.8 L585.6 491.6 L572.2 482.1 L560.0 476.7 L557.5 467.4 L553.3 460.7 L570.6 455.9 L579.5 450.4 L596.6 446.1 L602.5 441.8 L608.8 444.4 L619.5 442.1 L630.7 449.2 L648.5 451.2 L647.1 457.3 L660.0 461.9 L663.5 456.1 L679.9 458.6 L682.1 465.6 L699.8 466.9 L710.8 477.9 L703.7 477.9 L700.0 481.9 L694.5 482.9 L693.0 487.9 L688.4 489.0 L687.8 491.0 L679.6 493.3 L669.1 493.0 L665.7 497.8 Z"/>
    <path d="M498.1 355.9 L498.6 364.5 L522.6 369.7 L522.4 377.6 L546.6 373.4 L560.0 367.3 L586.8 376.1 L598.1 383.2 L603.7 394.5 L597.0 400.4 L605.7 408.3 L611.5 420.2 L609.7 427.9 L619.5 442.1 L608.8 444.4 L602.5 441.8 L596.6 446.1 L579.5 450.4 L570.6 455.9 L553.3 460.7 L557.5 467.4 L560.0 476.7 L572.2 482.1 L585.6 491.6 L577.2 501.9 L568.7 504.7 L572.0 519.2 L569.8 522.9 L562.4 518.4 L551.0 517.7 L534.0 521.7 L513.0 520.7 L509.6 526.6 L497.5 520.4 L490.3 521.7 L464.8 514.9 L459.9 519.7 L439.7 519.5 L442.7 503.7 L454.7 488.5 L420.4 484.4 L409.2 478.6 L410.5 468.8 L405.8 463.8 L408.5 448.8 L404.5 425.5 L418.8 425.5 L424.8 417.1 L430.8 396.8 L426.3 389.3 L431.0 384.6 L450.9 383.4 L455.3 388.3 L471.4 377.3 L466.0 369.0 L464.9 356.4 L482.9 359.3 L498.1 355.9 Z"/>
    <path d="M564.0 342.0 L549.8 360.0 L524.8 347.4 L521.5 338.2 L556.5 330.9 L564.0 342.0 Z"/>
    <path d="M521.7 323.1 L515.9 331.5 L508.8 329.1 L491.7 345.1 L498.1 355.9 L482.9 359.3 L464.9 356.4 L455.2 344.1 L454.5 321.3 L458.5 315.3 L465.3 308.7 L486.3 307.3 L494.7 301.2 L513.8 294.9 L513.0 306.3 L506.0 313.6 L508.8 319.8 L521.7 323.1 Z"/>
    <path d="M46.8 647.1 L48.0 631.3 L38.3 621.6 L71.9 605.6 L101.1 609.6 L133.1 609.5 L158.4 613.3 L178.2 612.1 L216.6 612.8 L226.1 621.5 L270.0 631.6 L278.6 626.8 L305.4 636.8 L333.0 633.9 L334.3 646.8 L311.7 661.6 L281.2 666.3 L279.1 673.8 L264.4 686.1 L255.3 704.2 L264.6 716.9 L250.8 726.8 L245.6 741.3 L227.7 745.7 L210.8 762.8 L180.6 763.1 L157.9 762.7 L143.0 770.6 L133.9 779.0 L122.2 777.1 L113.4 769.6 L106.7 756.8 L84.4 753.4 L82.4 746.0 L91.3 737.7 L94.5 731.6 L86.3 725.0 L92.9 710.4 L83.4 697.1 L93.7 695.3 L94.6 684.8 L98.5 681.5 L98.8 664.2 L109.8 658.2 L103.1 647.0 L89.3 646.3 L85.2 649.1 L71.1 649.1 L65.1 638.2 L55.4 641.5 L46.8 647.1 Z"/>
    <path d="M840.8 293.5 L843.5 280.4 L834.8 283.2 L819.7 275.3 L817.6 262.5 L847.7 256.3 L877.7 253.1 L903.6 256.8 L928.1 256.1 L931.7 260.0 L914.8 272.8 L921.8 293.5 L911.6 300.6 L892.0 300.5 L871.5 292.3 L861.1 289.6 L840.8 293.5 Z"/>
    <path d="M942.7 43.0 L939.2 58.6 L975.7 73.4 L953.7 90.1 L981.4 115.4 L965.3 134.5 L986.8 151.0 L977.0 165.5 L1012.3 180.7 L1003.3 192.1 L981.2 204.9 L930.2 233.3 L887.0 235.0 L845.2 243.2 L806.4 247.9 L792.6 235.7 L769.6 228.4 L774.9 206.5 L763.3 186.5 L774.7 173.6 L796.3 159.6 L850.7 135.5 L866.6 130.9 L864.1 121.5 L831.0 111.0 L823.0 102.3 L822.4 68.1 L785.2 53.0 L753.5 42.1 L767.7 36.2 L794.2 48.0 L825.3 46.9 L850.8 52.2 L873.6 42.4 L885.2 26.1 L922.2 18.6 L952.8 27.4 L942.7 43.0 Z"/>
    <path d="M489.5 641.1 L481.7 658.2 L470.9 653.7 L465.3 638.7 L470.1 630.5 L485.5 622.0 L489.5 641.1 Z"/>
    <path d="M347.3 458.2 L364.0 468.7 L376.2 467.0 L397.0 477.1 L402.3 479.1 L409.2 478.6 L420.4 484.4 L454.7 488.5 L442.7 503.7 L439.7 519.5 L433.1 523.3 L422.3 521.3 L423.1 526.9 L405.7 539.4 L405.3 549.5 L416.7 546.0 L424.8 555.8 L423.9 562.0 L430.9 570.4 L422.6 577.1 L428.8 594.3 L441.7 597.2 L438.9 606.8 L417.4 619.4 L370.4 613.3 L335.7 620.6 L333.0 633.9 L305.4 636.8 L278.6 626.8 L270.0 631.6 L226.1 621.5 L216.6 612.8 L228.9 599.5 L233.5 555.2 L208.9 531.9 L191.4 520.7 L155.0 512.1 L152.6 495.9 L183.4 491.1 L223.4 496.8 L215.9 471.6 L238.3 481.2 L293.8 463.8 L300.9 445.6 L321.8 441.1 L325.2 449.0 L336.3 449.3 L347.3 458.2 Z"/>
    <path d="M127.1 365.5 L114.3 380.7 L96.3 376.1 L81.6 376.4 L86.5 364.5 L81.6 352.6 L101.6 351.7 L127.1 365.5 Z"/>
    <path d="M190.4 274.8 L164.9 298.8 L189.2 295.8 L215.3 295.9 L209.0 314.0 L187.6 333.9 L212.3 335.3 L214.2 337.7 L235.4 363.9 L251.7 367.5 L266.3 392.8 L273.1 401.6 L301.9 405.8 L299.0 420.0 L286.9 426.5 L296.4 438.0 L275.0 449.7 L243.2 449.4 L202.6 455.6 L191.5 451.2 L175.8 461.6 L153.7 459.1 L137.0 467.6 L124.4 463.1 L159.3 439.8 L180.6 435.0 L180.4 435.0 L143.2 431.3 L136.5 422.4 L161.4 415.5 L148.3 403.6 L152.9 389.0 L188.2 391.0 L188.3 391.0 L191.8 378.1 L175.8 364.4 L175.5 364.1 L146.6 360.2 L140.9 354.2 L149.5 344.3 L141.7 338.1 L128.9 348.6 L127.5 327.2 L115.5 315.9 L124.1 292.9 L142.6 274.9 L161.6 276.6 L190.4 274.8 Z"/>
    <path d="M826.2 784.3 L839.2 791.8 L857.7 790.6 L875.5 792.1 L874.9 796.0 L887.9 793.3 L884.9 799.9 L850.6 801.8 L850.8 798.1 L821.8 793.8 L826.2 784.3 Z"/>
    <path d="M895.3 654.2 L888.0 668.1 L882.3 670.6 L867.8 669.9 L855.4 667.8 L826.5 673.6 L843.0 686.1 L831.0 689.7 L817.7 689.8 L805.1 678.3 L800.6 683.2 L805.9 696.5 L817.9 706.9 L808.9 711.8 L822.1 722.0 L833.9 728.4 L834.3 741.0 L812.3 735.1 L819.3 746.4 L804.2 748.8 L813.2 768.4 L797.4 768.7 L777.9 759.0 L768.9 741.2 L764.8 726.4 L755.5 716.2 L743.3 703.6 L741.7 697.2 L752.7 686.4 L754.2 679.2 L761.9 676.0 L762.4 670.2 L778.0 668.2 L787.0 663.3 L799.9 663.8 L803.9 659.9 L808.4 659.2 L826.0 659.8 L845.1 653.7 L861.8 661.5 L883.5 659.4 L883.7 648.3 L895.3 654.2 Z"/>
    <path d="M710.2 557.6 L716.0 566.2 L723.6 572.5 L714.4 580.9 L703.6 576.0 L687.2 576.3 L666.7 572.6 L655.6 573.1 L650.4 577.7 L641.9 572.6 L636.9 581.8 L648.6 592.2 L653.7 599.1 L664.7 607.4 L673.7 612.3 L682.7 621.6 L703.8 630.0 L701.2 633.8 L678.8 625.6 L665.0 617.6 L643.2 611.0 L623.2 594.6 L628.0 592.9 L617.2 583.6 L616.7 576.1 L601.4 572.6 L594.1 582.2 L587.1 574.7 L587.6 567.0 L588.5 566.7 L605.0 567.4 L609.4 563.7 L617.5 567.3 L626.8 567.7 L626.8 561.5 L635.0 559.2 L637.4 550.3 L656.3 544.4 L663.9 547.1 L681.7 556.6 L701.3 560.9 L710.2 557.6 Z"/>
    <path d="M647.7 536.6 L655.6 522.3 L651.0 517.5 L664.4 517.4 L666.2 508.4 L678.3 514.1 L687.1 516.5 L707.1 513.8 L709.0 509.3 L718.4 508.6 L730.0 505.2 L732.6 506.6 L743.8 503.8 L749.4 498.6 L757.2 497.2 L782.7 504.0 L787.8 501.7 L801.0 507.8 L802.6 513.7 L788.1 518.4 L776.8 533.5 L762.4 548.5 L743.3 552.7 L728.5 551.7 L710.2 557.6 L701.3 560.9 L681.7 556.6 L663.9 547.1 L656.3 544.4 L651.7 536.9 L647.7 536.6 Z"/>
    <path d="M114.3 380.7 L118.3 396.6 L100.3 416.4 L58.1 429.6 L24.4 426.2 L43.7 403.0 L31.2 380.4 L63.6 363.0 L81.6 352.6 L86.5 364.5 L81.6 376.4 L96.3 376.1 L114.3 380.7 Z"/>
    <path d="M631.4 728.2 L622.9 745.7 L626.4 752.6 L621.4 764.0 L603.2 755.6 L591.1 753.2 L557.9 741.9 L561.2 730.5 L589.1 732.6 L613.4 730.1 L631.4 728.2 Z"/>
    <path d="M481.2 662.0 L495.5 677.8 L492.1 707.2 L481.3 705.8 L471.6 713.2 L462.6 707.3 L461.6 680.5 L456.2 667.8 L469.3 668.9 L481.2 662.0 Z"/>
    <path d="M556.6 538.5 L590.6 544.2 L588.1 555.2 L593.8 564.6 L574.8 561.4 L555.4 569.3 L556.8 580.3 L553.8 586.7 L561.6 598.0 L584.0 609.2 L595.9 627.5 L622.4 645.4 L641.1 645.3 L646.9 650.2 L640.2 654.6 L661.5 662.7 L679.0 669.4 L699.4 681.0 L701.9 685.1 L697.5 693.1 L684.2 682.7 L663.6 679.1 L653.5 693.4 L670.7 701.7 L667.9 713.3 L658.0 714.6 L645.3 733.6 L635.3 735.4 L635.4 728.6 L640.3 716.6 L645.5 711.9 L636.2 699.0 L628.9 687.8 L619.0 685.0 L612.0 675.5 L596.7 671.4 L586.4 662.5 L568.8 661.0 L550.2 651.0 L528.4 636.5 L512.2 623.7 L504.8 601.8 L492.9 599.2 L473.5 591.9 L462.6 594.9 L448.8 605.2 L438.9 606.8 L441.7 597.2 L428.8 594.3 L422.6 577.1 L430.9 570.4 L423.9 562.0 L424.8 555.8 L435.1 560.5 L446.6 559.5 L459.9 551.9 L464.0 555.4 L475.4 554.7 L480.5 545.8 L498.2 548.6 L508.7 544.8 L510.5 535.7 L525.0 538.9 L527.7 534.6 L551.3 530.8 L556.6 538.5 Z"/>
    <path d="M756.2 643.3 L755.2 647.8 L752.1 647.7 L750.5 639.6 L744.9 637.3 L739.8 631.4 L744.2 626.4 L749.9 624.8 L753.2 617.4 L757.5 616.2 L760.9 619.3 L765.3 620.7 L768.4 624.2 L772.3 625.3 L777.0 629.4 L780.4 629.3 L777.7 634.7 L774.8 637.3 L775.6 639.0 L770.3 639.8 L756.2 643.3 Z"/>
    <path d="M803.1 370.5 L801.2 364.8 L803.8 358.7 L793.2 355.2 L768.3 351.3 L763.2 332.6 L790.5 325.8 L830.4 327.3 L853.8 325.1 L857.2 329.7 L869.8 331.1 L892.7 341.9 L895.0 351.8 L875.4 359.0 L869.9 371.5 L844.1 379.9 L821.1 379.7 L815.3 372.9 L803.1 370.5 Z"/>
    <path d="M405.8 463.8 L410.5 468.8 L409.2 478.6 L402.3 479.1 L397.0 477.1 L399.6 464.7 L405.8 463.8 Z"/>
    <path d="M763.2 332.6 L764.1 315.9 L775.8 302.0 L798.2 294.4 L817.1 311.0 L836.2 310.5 L840.8 293.5 L861.1 289.6 L871.5 292.3 L892.0 300.5 L911.6 300.6 L923.1 305.7 L925.1 316.5 L932.8 329.6 L907.2 338.1 L892.7 341.9 L869.8 331.1 L857.2 329.7 L853.8 325.1 L830.4 327.3 L790.5 325.8 L763.2 332.6 Z"/>
    <path d="M895.7 506.2 L901.4 502.9 L917.2 500.7 L934.8 507.7 L944.5 508.5 L955.3 514.5 L953.6 522.0 L962.3 525.6 L965.7 534.9 L974.0 540.6 L972.3 543.9 L976.8 546.1 L970.5 547.8 L956.4 547.1 L954.1 544.1 L949.1 545.8 L950.8 549.8 L944.3 556.9 L940.1 564.5 L934.1 566.9 L929.9 556.8 L932.4 547.3 L931.6 537.5 L917.9 524.3 L910.3 515.0 L903.0 508.4 L895.7 506.2 Z"/>
    <path d="M752.1 647.7 L755.2 647.8 L756.2 643.3 L770.3 639.8 L775.6 639.0 L783.7 637.7 L794.8 637.3 L806.7 644.5 L808.4 659.2 L803.9 659.9 L799.9 663.8 L787.0 663.3 L778.0 668.2 L762.4 670.2 L752.5 664.8 L749.1 655.2 L752.1 647.7 Z"/>
    <path d="M733.4 633.3 L731.9 629.2 L721.5 640.1 L723.1 647.2 L718.2 645.4 L711.5 638.2 L701.2 633.8 L703.8 630.0 L707.3 617.8 L715.0 612.6 L719.5 610.6 L725.8 614.4 L729.3 617.5 L737.1 619.9 L746.2 624.5 L744.2 626.4 L739.8 631.4 L733.4 633.3 Z"/>
    <path d="M406.5 388.7 L426.3 389.3 L430.8 396.8 L424.8 417.1 L418.8 425.5 L404.5 425.5 L408.5 448.8 L395.4 443.6 L380.3 433.9 L358.3 438.5 L340.8 436.8 L353.1 430.7 L374.0 398.0 L406.5 388.7 Z"/>
    <path d="M932.5 -4.1 L1007.0 12.1 L976.3 18.1 L1002.4 32.0 L961.9 41.0 L942.7 43.0 L952.8 27.4 L922.2 18.6 L885.2 26.1 L873.6 42.4 L850.8 52.2 L825.3 46.9 L794.2 48.0 L767.7 36.2 L753.5 42.1 L738.7 43.0 L735.2 57.6 L690.3 54.1 L684.0 66.4 L661.2 66.4 L645.4 82.2 L621.6 106.8 L584.7 138.1 L593.3 145.7 L585.0 154.5 L561.4 154.1 L546.0 174.9 L547.4 204.4 L562.6 215.7 L554.8 241.8 L535.0 257.1 L524.5 269.9 L508.5 256.2 L461.5 281.9 L429.7 287.1 L396.8 275.8 L388.3 251.9 L380.8 200.6 L402.7 186.3 L465.6 167.7 L512.6 144.8 L556.2 113.8 L613.4 70.9 L653.2 54.2 L718.7 26.3 L770.9 16.6 L810.1 17.7 L846.3 -0.7 L889.8 0.3 L932.5 -4.1 Z"/>
    <path d="M619.5 442.1 L609.7 427.9 L611.5 420.2 L605.7 408.3 L597.0 400.4 L603.7 394.5 L598.1 383.2 L614.4 376.7 L651.5 366.4 L681.5 358.9 L705.3 362.6 L707.1 368.0 L730.0 368.3 L759.3 370.8 L803.1 370.5 L815.3 372.9 L821.1 379.7 L822.1 389.6 L828.7 398.0 L828.6 406.9 L814.3 411.4 L821.6 421.7 L822.1 431.6 L834.0 451.0 L831.5 457.2 L819.7 459.8 L798.1 478.3 L804.2 488.3 L799.0 487.0 L776.4 478.4 L759.2 481.6 L748.0 479.3 L733.9 484.1 L721.9 476.2 L712.1 479.2 L710.8 477.9 L699.8 466.9 L682.1 465.6 L679.9 458.6 L663.5 456.1 L660.0 461.9 L647.1 457.3 L648.5 451.2 L630.7 449.2 L619.5 442.1 Z"/>
    <path d="M46.8 647.1 L55.4 641.5 L65.1 638.2 L71.1 649.1 L85.2 649.1 L89.3 646.3 L103.1 647.0 L109.8 658.2 L98.8 664.2 L98.5 681.5 L94.6 684.8 L93.7 695.3 L83.4 697.1 L92.9 710.4 L86.3 725.0 L94.5 731.6 L91.3 737.7 L82.4 746.0 L84.4 753.4 L74.9 759.1 L62.3 756.0 L50.0 758.5 L53.7 741.1 L51.4 727.4 L40.8 725.4 L35.1 716.9 L37.0 702.4 L46.5 694.3 L48.2 685.3 L53.1 672.0 L52.6 662.6 L47.8 654.6 L46.8 647.1 Z"/>
    <path d="M802.6 513.7 L812.9 509.0 L827.6 511.4 L842.9 511.5 L854.0 516.9 L862.1 513.5 L879.7 511.4 L885.7 506.2 L895.7 506.2 L903.0 508.4 L910.3 515.0 L917.9 524.3 L931.6 537.5 L932.4 547.3 L929.9 556.8 L934.1 566.9 L944.8 571.0 L955.9 567.4 L966.7 571.3 L967.3 577.0 L955.8 581.8 L948.5 579.7 L941.9 606.5 L927.9 604.2 L910.5 596.1 L882.5 601.3 L870.7 606.9 L835.7 605.8 L817.4 602.3 L808.2 603.9 L801.4 594.8 L797.0 590.9 L802.5 587.2 L796.6 584.4 L789.2 589.4 L775.3 582.9 L773.4 573.8 L758.9 568.5 L756.2 561.5 L743.3 552.7 L762.4 548.5 L776.8 533.5 L788.1 518.4 L802.6 513.7 Z"/>
    <path d="M803.1 370.5 L759.3 370.8 L730.0 368.3 L735.4 358.5 L768.3 351.3 L793.2 355.2 L803.8 358.7 L801.2 364.8 L803.1 370.5 Z"/>
    <path d="M1050.0 -50.0 L1050.0 -50.0 L1050.0 -50.0 L1050.0 -50.0 L1050.0 -50.0 L1050.0 -50.0 L1050.0 -50.0 L1050.0 -50.0 L1050.0 -50.0 L1050.0 -50.0 L1050.0 -50.0 L1050.0 -50.0 L1050.0 -50.0 L1050.0 -50.0 L1050.0 -50.0 L1050.0 -50.0 L1050.0 -50.0 L1050.0 -47.1 L1050.0 -43.8 L1050.0 -50.0 L1050.0 -50.0 L1050.0 -50.0 L1050.0 -45.3 L1050.0 -31.1 L1050.0 -21.8 L1050.0 -4.3 L1050.0 4.7 L1050.0 -18.6 L1050.0 -8.6 L1050.0 -14.6 L1050.0 -7.7 L1050.0 -14.0 L1050.0 -10.8 L1050.0 -31.5 L1050.0 -41.1 L1050.0 -26.7 L1050.0 -13.5 L1050.0 3.5 L1050.0 -0.7 L1050.0 3.0 L1050.0 12.2 L1050.0 28.4 L1050.0 34.7 L1050.0 30.2 L1050.0 29.6 L1050.0 34.0 L1050.0 31.5 L1050.0 51.2 L1050.0 44.1 L1050.0 29.9 L1050.0 20.1 L1050.0 26.3 L1050.0 24.9 L1050.0 35.6 L1050.0 45.3 L1050.0 133.8 L1050.0 133.9 L1050.0 143.7 L1050.0 142.0 L1050.0 153.9 L1050.0 172.2 L1050.0 178.2 L1050.0 187.4 L1050.0 193.2 L1050.0 188.4 L1050.0 205.1 L1050.0 207.7 L1050.0 223.3 L1050.0 237.0 L1050.0 247.1 L1050.0 231.7 L1050.0 249.1 L1050.0 240.9 L1050.0 250.4 L1050.0 247.4 L1050.0 262.0 L1050.0 283.5 L1050.0 292.5 L1050.0 297.4 L1050.0 329.8 L1050.0 330.6 L1050.0 349.2 L1050.0 358.8 L1050.0 370.1 L1050.0 395.5 L1050.0 400.9 L1050.0 423.5 L1050.0 444.2 L1050.0 428.9 L1050.0 396.5 L1050.0 347.1 L1050.0 316.3 L1050.0 303.0 L1050.0 292.6 L1050.0 287.6 L1050.0 259.7 L1050.0 236.8 L1050.0 219.1 L1050.0 187.8 L1050.0 189.6 L1050.0 207.9 L1050.0 232.4 L1050.0 205.0 L1050.0 212.6 L1050.0 249.8 L1050.0 263.4 L1050.0 269.2 L1050.0 271.5 L1050.0 255.5 L1050.0 252.1 L1050.0 263.0 L1050.0 259.2 L1050.0 265.8 L1050.0 309.2 L1050.0 361.6 L1050.0 364.4 L1050.0 378.3 L1050.0 383.2 L1050.0 372.1 L1050.0 373.6 L1050.0 398.0 L1050.0 416.9 L1050.0 439.1 L1050.0 465.7 L1050.0 501.2 L1050.0 533.3 L1050.0 548.7 L1050.0 574.6 L1050.0 600.2 L1050.0 613.4 L1050.0 626.4 L1050.0 626.7 L1050.0 615.9 L1050.0 632.2 L1050.0 639.6 L1050.0 635.7 L1050.0 624.4 L1050.0 623.8 L1050.0 597.5 L1050.0 578.5 L1050.0 570.6 L1050.0 574.6 L1050.0 553.0 L1050.0 528.6 L1050.0 520.5 L1050.0 500.5 L1050.0 507.0 L1050.0 515.8 L1050.0 515.8 L1050.0 494.9 L1050.0 479.1 L1050.0 472.0 L1050.0 450.2 L1050.0 436.6 L1050.0 427.0 L1050.0 404.6 L1050.0 396.4 L1050.0 389.8 L1050.0 390.4 L1050.0 394.4 L1050.0 405.5 L1050.0 410.8 L1050.0 423.0 L1050.0 430.1 L1050.0 453.7 L1050.0 463.5 L1050.0 477.5 L1050.0 469.1 L1050.0 471.0 L1050.0 463.6 L1050.0 461.1 L1050.0 476.8 L1050.0 480.5 L1050.0 486.0 L1050.0 482.4 L1050.0 482.6 L1050.0 471.3 L1050.0 460.6 L1050.0 457.6 L1050.0 460.5 L1050.0 464.7 L1050.0 455.3 L1050.0 438.7 L1050.0 433.0 L1050.0 430.4 L1050.0 421.2 L1050.0 444.2 L1050.0 457.3 L1050.0 472.8 L1050.0 467.2 L1050.0 466.4 L1050.0 456.0 L1050.0 455.7 L1050.0 448.8 L1050.0 459.3 L1050.0 478.4 L1050.0 482.3 L1050.0 484.1 L1050.0 470.5 L1050.0 473.5 L1050.0 464.1 L1050.0 459.7 L1050.0 446.9 L1050.0 442.9 L1050.0 448.6 L1050.0 435.8 L1050.0 447.4 L1050.0 391.0 L1050.0 373.8 L1050.0 366.9 L1050.0 387.8 L1050.0 389.1 L1050.0 377.0 L1050.0 369.4 L1050.0 374.8 L1050.0 351.8 L1050.0 347.0 L1050.0 356.2 L1050.0 364.4 L1050.0 369.9 L1050.0 377.6 L1050.0 385.2 L1050.0 400.4 L1050.0 406.2 L1050.0 412.3 L1050.0 423.1 L1050.0 438.4 L1050.0 448.9 L1050.0 448.0 L1050.0 454.5 L1050.0 443.0 L1050.0 443.5 L1050.0 452.9 L1050.0 443.9 L1050.0 428.5 L1050.0 429.0 L1050.0 453.2 L1050.0 469.4 L1050.0 456.6 L1050.0 481.0 L1050.0 485.5 L1050.0 502.4 L1050.0 517.4 L1050.0 516.8 L1050.0 531.7 L1050.0 543.1 L1050.0 546.7 L1050.0 559.9 L1050.0 563.5 L1050.0 586.5 L1050.0 607.6 L1050.0 622.5 L1050.0 648.7 L1050.0 657.6 L1050.0 663.3 L1050.0 661.8 L1050.0 648.3 L1050.0 647.5 L1050.0 642.4 L1050.0 633.3 L1050.0 628.6 L1050.0 632.1 L1050.0 628.0 L1050.0 617.3 L1050.0 613.7 L1050.0 609.9 L1050.0 612.6 L1050.0 593.8 L1050.0 585.4 L1050.0 572.3 L1050.0 568.8 L1050.0 550.2 L1050.0 541.4 L1050.0 532.3 L1050.0 527.5 L1050.0 531.1 L1050.0 521.2 L1050.0 515.0 L1050.0 513.4 L1050.0 505.9 L1050.0 493.7 L1050.0 482.1 L1050.0 475.5 L1050.0 468.3 L1050.0 468.5 L1050.0 458.1 L1050.0 461.7 L1050.0 453.8 L1050.0 449.5 L1050.0 439.8 L1050.0 438.8 L1050.0 431.9 L1050.0 427.4 L1050.0 414.8 L1040.9 416.9 L1033.6 415.8 L1027.6 420.9 L1018.7 420.0 L1012.9 405.7 L1007.3 398.4 L1011.8 396.3 L1031.1 397.1 L1040.3 392.2 L1033.5 386.3 L1017.4 382.4 L1018.8 378.3 L1009.2 374.3 L994.2 359.7 L999.3 353.7 L997.0 343.3 L973.7 338.0 L961.2 340.7 L957.8 335.1 L932.8 329.6 L925.1 316.5 L923.1 305.7 L911.6 300.6 L921.8 293.5 L914.8 272.8 L931.7 260.0 L928.1 256.1 L955.2 243.8 L930.2 233.3 L981.2 204.9 L1003.3 192.1 L1012.3 180.7 L977.0 165.5 L986.8 151.0 L965.3 134.5 L981.4 115.4 L953.7 90.1 L975.7 73.4 L939.2 58.6 L942.7 43.0 L961.9 41.0 L1002.4 32.0 L1027.0 24.3 L1050.0 37.7 L1050.0 43.0 L1050.0 68.2 L1050.0 78.7 L1050.0 93.5 L1050.0 105.2 L1050.0 111.1 L1050.0 94.2 L1050.0 97.1 L1050.0 113.3 L1050.0 123.6 L1050.0 146.3 L1050.0 153.1 L1050.0 158.9 L1050.0 148.1 L1050.0 138.6 L1050.0 130.2 L1050.0 144.0 L1050.0 138.6 L1050.0 122.3 L1050.0 100.5 L1050.0 101.8 L1050.0 109.6 L1050.0 94.3 L1050.0 81.1 L1050.0 67.8 L1050.0 54.0 L1050.0 61.1 L1050.0 73.6 L1050.0 76.3 L1050.0 88.7 L1050.0 96.3 L1050.0 91.5 L1050.0 77.3 L1050.0 66.7 L1050.0 47.6 L1050.0 48.7 L1050.0 62.2 L1050.0 64.5 L1050.0 56.9 L1050.0 56.3 L1050.0 47.1 L1050.0 60.5 L1050.0 45.8 L1050.0 32.9 L1050.0 25.6 L1050.0 32.3 L1050.0 39.2 L1050.0 64.6 L1050.0 53.0 L1050.0 41.2 L1050.0 36.5 L1050.0 34.3 L1050.0 23.8 L1050.0 6.5 L1050.0 -0.6 L1050.0 -20.8 L1050.0 -41.0 L1050.0 -45.3 L1050.0 -39.5 L1050.0 -27.1 L1050.0 -9.1 L1050.0 -2.0 L1050.0 13.5 L1050.0 44.0 L1050.0 57.6 L1050.0 72.4 L1050.0 104.0 L1050.0 107.3 L1050.0 99.3 L1050.0 93.6 L1050.0 82.6 L1050.0 72.0 L1050.0 59.4 L1050.0 44.7 L1050.0 42.9 L1050.0 30.5 L1050.0 8.2 L1050.0 -9.9 L1050.0 -24.9 L1050.0 -40.7 L1050.0 -41.2 L1050.0 -28.9 L1050.0 -7.5 L1050.0 -3.4 L1050.0 -19.4 L1050.0 -28.2 L1050.0 -29.3 L1050.0 -16.7 L1050.0 -35.2 L1050.0 -50.0 L1050.0 -50.0 L1050.0 -50.0 L1050.0 -50.0 L1050.0 -50.0 L1050.0 -50.0 L1050.0 -50.0 L1050.0 -50.0 L1050.0 -50.0 L1050.0 -50.0 L1050.0 -50.0 L1050.0 -50.0 L1050.0 -50.0 L1050.0 -50.0 L1050.0 -50.0 L1050.0 -50.0 L1050.0 -50.0 L1050.0 -50.0 L1050.0 -50.0 L1050.0 -50.0 Z"/>
    <path d="M758.9 568.5 L773.4 573.8 L775.3 582.9 L789.2 589.4 L796.6 584.4 L802.5 587.2 L797.0 590.9 L801.4 594.8 L795.5 599.8 L797.6 607.9 L809.2 617.5 L800.1 624.5 L796.1 631.5 L798.7 634.2 L794.8 637.3 L783.7 637.7 L775.6 639.0 L774.8 637.3 L777.7 634.7 L780.4 629.3 L777.0 629.4 L772.3 625.3 L768.4 624.2 L765.3 620.7 L760.9 619.3 L757.5 616.2 L753.2 617.4 L749.9 624.8 L744.2 626.4 L746.2 624.5 L737.1 619.9 L729.3 617.5 L725.8 614.4 L719.5 610.6 L725.1 609.6 L728.6 599.1 L717.1 590.6 L723.0 580.8 L714.4 580.9 L723.6 572.5 L716.0 566.2 L710.2 557.6 L728.5 551.7 L743.3 552.7 L756.2 561.5 L758.9 568.5 Z"/>
    <path d="M710.8 477.9 L712.1 479.2 L721.9 476.2 L733.9 484.1 L748.0 479.3 L759.2 481.6 L776.4 478.4 L799.0 487.0 L792.4 492.8 L787.8 501.7 L782.7 504.0 L757.2 497.2 L749.4 498.6 L743.8 503.8 L732.6 506.6 L730.0 505.2 L718.4 508.6 L709.0 509.3 L707.1 513.8 L687.1 516.5 L678.3 514.1 L666.2 508.4 L663.8 500.7 L665.7 497.8 L669.1 493.0 L679.6 493.3 L687.8 491.0 L688.4 489.0 L693.0 487.9 L694.5 482.9 L700.0 481.9 L703.7 477.9 L710.8 477.9 Z"/>
    <path d="M590.6 544.2 L610.3 546.0 L622.3 540.9 L643.1 540.4 L647.7 536.6 L651.7 536.9 L656.3 544.4 L637.4 550.3 L635.0 559.2 L626.8 561.5 L626.8 567.7 L617.5 567.3 L609.4 563.7 L605.0 567.4 L588.5 566.7 L593.8 564.6 L588.1 555.2 L590.6 544.2 Z"/>
    <path d="M790.1 117.3 L767.0 132.8 L770.7 146.4 L732.8 164.2 L686.9 183.3 L669.5 214.6 L686.5 230.3 L709.2 242.6 L687.4 267.7 L662.6 272.9 L653.5 310.2 L640.0 331.0 L611.1 328.9 L597.6 346.5 L570.1 347.5 L562.5 326.5 L542.6 301.3 L524.5 269.9 L535.0 257.1 L554.8 241.8 L562.6 215.7 L547.4 204.4 L546.0 174.9 L561.4 154.1 L585.0 154.5 L593.3 145.7 L584.7 138.1 L621.6 106.8 L645.4 82.2 L661.2 66.4 L684.0 66.4 L690.3 54.1 L735.2 57.6 L738.7 43.0 L753.5 42.1 L785.2 53.0 L822.4 68.1 L823.0 102.3 L831.0 111.0 L790.1 117.3 Z"/>
    <path d="M1018.7 420.0 L1027.6 420.9 L1033.6 415.8 L1040.9 416.9 L1050.0 414.8 L1050.0 427.4 L1050.0 431.9 L1050.0 438.8 L1050.0 439.8 L1050.0 449.5 L1050.0 453.8 L1050.0 461.7 L1050.0 458.1 L1050.0 468.5 L1050.0 468.3 L1050.0 475.5 L1050.0 482.1 L1050.0 493.7 L1050.0 505.9 L1050.0 513.4 L1050.0 515.0 L1050.0 521.2 L1050.0 531.1 L1050.0 532.8 L1050.0 540.0 L1050.0 541.2 L1050.0 549.5 L1050.0 563.3 L1050.0 568.7 L1050.0 567.3 L1050.0 575.3 L1050.0 579.1 L1050.0 592.0 L1050.0 587.4 L1050.0 577.0 L1034.6 570.5 L1038.8 566.2 L1050.0 558.9 L1050.0 553.8 L1017.7 548.1 L1016.1 539.9 L994.0 542.6 L985.2 554.8 L966.7 571.3 L955.9 567.4 L944.8 571.0 L934.1 566.9 L940.1 564.5 L944.3 556.9 L950.8 549.8 L949.1 545.8 L954.1 544.1 L956.4 547.1 L970.5 547.8 L976.8 546.1 L972.3 543.9 L974.0 540.6 L965.7 534.9 L962.3 525.6 L953.6 522.0 L955.3 514.5 L944.5 508.5 L934.8 507.7 L917.2 500.7 L901.4 502.9 L895.7 506.2 L885.7 506.2 L879.7 511.4 L862.1 513.5 L854.0 516.9 L842.9 511.5 L827.6 511.4 L812.9 509.0 L802.6 513.7 L801.0 507.8 L787.8 501.7 L792.4 492.8 L799.0 487.0 L804.2 488.3 L798.1 478.3 L819.7 459.8 L831.5 457.2 L834.0 451.0 L822.1 431.6 L833.5 430.7 L846.5 424.7 L864.9 424.2 L889.0 425.9 L915.6 431.3 L934.3 431.7 L943.3 434.9 L952.2 431.1 L958.5 436.3 L979.9 435.2 L989.4 437.3 L990.9 426.2 L998.3 421.3 L1018.7 420.0 Z"/>
  </g>
</svg>
