<svg xmlns="http://www.w3.org/2000/svg" viewBox="0 0 1000 800" role="img">
  <title>Europe simplified outline</title>
  <desc>Simplified coastline outline of Europe derived from public-domain Natural Earth data.</desc>
  <g fill="#cfd5ff" stroke="#8891c8" stroke-width="6" stroke-linejoin="round" stroke-linecap="round">
    <path d="M47.6 777.8 L119 766.7 L142.9 755.6 L250 717.8 L273.8 688.9 L333.3 633.3 L428.6 622.2 L476.2 600 L571.4 622.2 L619 666.7 L642.9 711.1 L631 733.3 L583.3 755.6 L523.8 733.3 L476.2 631.1 L571.4 577.8 L607.1 566.7 L642.9 566.7 L690.5 584.4 L690.5 633.3 L738.1 666.7 L785.7 688.9 L821.4 711.1 L904.8 755.6 L940.5 766.7 L952.4 744.4 L964.3 677.8 L952.4 644.4 L952.4 577.8 L988.1 544.4 L988.1 466.7 L988.1 422.2 L964.3 355.6 L952.4 311.1 L928.6 244.4 L904.8 200 L857.1 133.3 L833.3 66.7 L833.3 11.1 L738.1 11.1 L690.5 44.4 L595.2 66.7 L595.2 111.1 L523.8 144.4 L500 177.8 L404.8 222.2 L381 244.4 L357.1 266.7 L309.5 288.9 L285.7 311.1 L261.9 355.6 L202.4 400 L166.7 444.4 L131 500 L166.7 555.6 L226.2 600 L238.1 611.1 L190.5 622.2 L71.4 633.3 L35.7 677.8 L47.6 777.8 Z"/>
    <path d="M131 466.7 L178.6 455.6 L238.1 444.4 L261.9 422.2 L273.8 400 L226.2 377.8 L190.5 344.4 L214.3 333.3 L142.9 300 L166.7 277.8 L190.5 266.7 L238.1 277.8 L273.8 311.1 L238.1 355.6 L190.5 366.7 L178.6 400 Z"/>
    <path d="M11.9 422.2 L23.8 388.9 L47.6 355.6 L71.4 344.4 L95.2 366.7 L119 400 L107.1 422.2 L59.5 444.4 Z"/>
  </g>
</svg>

